<svg width="512" height="512" viewBox="0 0 512 512" fill="none" xmlns="http://www.w3.org/2000/svg">
<rect width="90" height="90" transform="translate(23 22)" fill="#FEE2E2"/>
<rect x="23" y="22" width="90" height="90" fill="#FEE2E2"/>
<rect x="117" y="22" width="90" height="90" fill="#FCA5A5"/>
<rect x="211" y="22" width="90" height="90" fill="#EF4444"/>
<rect x="305" y="22" width="90" height="90" fill="#B91C1C"/>
<rect x="399" y="22" width="90" height="90" fill="#7F1D1D"/>
<rect x="23" y="116" width="90" height="90" fill="#FEF9C3"/>
<rect x="117" y="116" width="90" height="90" fill="#FDE047"/>
<rect x="211" y="116" width="90" height="90" fill="#EAB308"/>
<rect x="305" y="116" width="90" height="90" fill="#A16207"/>
<rect x="399" y="116" width="90" height="90" fill="#713F12"/>
<rect x="23" y="210" width="90" height="90" fill="#D1FAE5"/>
<rect x="117" y="210" width="90" height="90" fill="#6EE7B7"/>
<rect x="211" y="210" width="90" height="90" fill="#10B981"/>
<rect x="305" y="210" width="90" height="90" fill="#047857"/>
<rect x="399" y="210" width="90" height="90" fill="#064E3B"/>
<rect x="23" y="304" width="90" height="90" fill="#DBEAFE"/>
<rect x="117" y="304" width="90" height="90" fill="#93C5FD"/>
<rect x="211" y="304" width="90" height="90" fill="#3B82F6"/>
<rect x="305" y="304" width="90" height="90" fill="#1D4ED8"/>
<rect x="399" y="304" width="90" height="90" fill="#1E3A8A"/>
<rect x="23" y="398" width="90" height="90" fill="#FAE8FF"/>
<rect x="117" y="398" width="90" height="90" fill="#F0ABFC"/>
<rect x="211" y="398" width="90" height="90" fill="#D946EF"/>
<rect x="305" y="398" width="90" height="90" fill="#A21CAF"/>
<rect x="399" y="398" width="90" height="90" fill="#701A75"/>
</svg>
